<svg width="12" height="12" viewBox="0 0 12 12" fill="none" xmlns="http://www.w3.org/2000/svg">
<path d="M9.44963 0.25H2.54991C1.27984 0.25 0.25 1.27984 0.25 2.55037V9.45055C0.25 10.7206 1.27984 11.7505 2.54991 11.7505H9.44963C10.7206 11.7505 11.75 10.7206 11.75 9.45055V2.55037C11.75 1.27984 10.7206 0.25 9.44963 0.25ZM10.9236 6.39273C10.9236 7.25491 10.2273 7.95357 9.36833 7.95357H7.04775L6.25585 9.24293C6.25585 9.24293 6.24896 9.25809 6.22921 9.28151C6.18282 9.36006 6.09784 9.41335 6 9.41335C5.90216 9.41335 5.81626 9.35914 5.76987 9.28014C5.75242 9.25855 5.74415 9.24339 5.74415 9.24339L4.95225 7.95403H2.63167C1.77271 7.95403 1.07635 7.25537 1.07635 6.39319V2.69001C1.07635 1.82783 1.77271 1.12917 2.63167 1.12917H9.36879C10.2278 1.12917 10.9241 1.82783 10.9241 2.69001V6.39273H10.9236Z" fill="black"/>
<path d="M3.26326 3.84249C3.26326 3.84249 2.99454 3.84249 2.75063 4.07997V3.12408H2.14752V5.63575H2.7566V5.43915C2.7566 5.43915 2.90038 5.69868 3.2628 5.69868C3.2628 5.69868 4.11257 5.66744 4.11257 4.76117C4.11257 4.76117 4.08134 3.84249 3.2628 3.84249H3.26326ZM3.13051 5.16814C2.91645 5.16814 2.74282 4.99451 2.74282 4.78046C2.74282 4.56641 2.91645 4.39324 3.13051 4.39324C3.34456 4.39324 3.51773 4.56687 3.51773 4.78046C3.51773 4.99405 3.3441 5.16814 3.13051 5.16814Z" fill="black"/>
<path d="M4.3064 3.06757V3.64863C4.3064 3.64863 4.58154 3.63623 4.58154 4.14839V5.63527H5.1626V4.01105C5.1626 4.01105 5.18741 3.06757 4.3064 3.06757Z" fill="black"/>
<path d="M6.58382 3.85028C6.58382 3.85028 5.58751 3.85028 5.58751 4.78044C5.58751 4.78044 5.55536 5.6982 6.58382 5.6982C6.58382 5.6982 7.60309 5.69682 7.60309 4.78044C7.60309 4.78044 7.63616 3.85028 6.58382 3.85028ZM6.58382 5.16812C6.36977 5.16812 6.19614 4.99449 6.19614 4.78044C6.19614 4.56639 6.36977 4.39322 6.58382 4.39322C6.79787 4.39322 6.97104 4.56685 6.97104 4.78044C6.97104 4.99403 6.79741 5.16812 6.58382 5.16812Z" fill="black"/>
<path d="M9.26632 3.91136V4.07994C9.26632 4.07994 9.09315 3.85027 8.76059 3.85027C8.76059 3.85027 7.9076 3.81444 7.9076 4.774C7.9076 4.774 7.89795 5.66833 8.73716 5.66833C8.73716 5.66833 9.07937 5.68211 9.26632 5.43866V5.57922C9.26632 5.57922 9.30858 6.01973 8.88231 6.01973H8.73716V6.55394H8.97143C8.97143 6.55394 9.85244 6.56358 9.85244 5.61229V3.91136H9.26678H9.26632ZM8.9062 5.16811C8.69215 5.16811 8.51898 4.99448 8.51898 4.78043C8.51898 4.56638 8.69215 4.39321 8.9062 4.39321C9.12025 4.39321 9.29342 4.56684 9.29342 4.78043C9.29342 4.99402 9.11979 5.16811 8.9062 5.16811Z" fill="black"/>
</svg>
