<svg width="12" height="12" viewBox="0 0 12 12" fill="none" xmlns="http://www.w3.org/2000/svg">
<g clip-path="url(#clip0_211_237)">
<path d="M3.51505 0.0419931C2.87665 0.0721131 2.44069 0.173993 2.05957 0.323753C1.66513 0.477473 1.33081 0.683753 0.99817 1.01759C0.66553 1.35143 0.46069 1.68599 0.30805 2.08103C0.16033 2.46299 0.0602497 2.89931 0.0320497 3.53807C0.00384973 4.17683 -0.00239027 4.38215 0.000729729 6.01151C0.00384973 7.64087 0.0110497 7.84511 0.0420097 8.48519C0.0724897 9.12347 0.17401 9.55931 0.32377 9.94055C0.47773 10.335 0.68377 10.6692 1.01773 11.002C1.35169 11.3347 1.68601 11.5391 2.08201 11.692C2.46361 11.8394 2.90005 11.94 3.53869 11.968C4.17733 11.9959 4.38289 12.0024 6.01177 11.9993C7.64065 11.9962 7.84573 11.989 8.48569 11.9586C9.12565 11.9282 9.55921 11.826 9.94057 11.677C10.335 11.5226 10.6694 11.317 11.002 10.9829C11.3345 10.6488 11.5392 10.314 11.6917 9.91871C11.8396 9.53711 11.94 9.10067 11.9677 8.46251C11.9957 7.82207 12.0023 7.61759 11.9992 5.98847C11.996 4.35935 11.9887 4.15511 11.9584 3.51527C11.928 2.87543 11.8264 2.44091 11.6767 2.05943C11.5225 1.66499 11.3167 1.33103 10.9829 0.998033C10.649 0.665033 10.314 0.460433 9.91885 0.308273C9.53701 0.160553 9.10081 0.0598731 8.46217 0.0322731C7.82353 0.00467309 7.61797 -0.00240692 5.98849 0.000713085C4.35901 0.00383308 4.15501 0.0107931 3.51505 0.0419931ZM3.58513 10.8886C3.00013 10.8631 2.68249 10.7659 2.47081 10.6846C2.19049 10.5766 1.99081 10.446 1.77985 10.2371C1.56889 10.0282 1.43929 9.82775 1.32985 9.54803C1.24765 9.33635 1.14865 9.01907 1.12129 8.43407C1.09153 7.80179 1.08529 7.61195 1.08181 6.01007C1.07833 4.40819 1.08445 4.21859 1.11217 3.58607C1.13713 3.00155 1.23493 2.68355 1.31617 2.47199C1.42417 2.19131 1.55425 1.99199 1.76365 1.78115C1.97305 1.57031 2.17285 1.44047 2.45281 1.33103C2.66425 1.24847 2.98153 1.15031 3.56629 1.12247C4.19905 1.09247 4.38865 1.08647 5.99029 1.08299C7.59193 1.07951 7.78201 1.08551 8.41501 1.11335C8.99953 1.13879 9.31765 1.23563 9.52897 1.31735C9.80941 1.42535 10.009 1.55507 10.2198 1.76483C10.4306 1.97459 10.5606 2.17367 10.67 2.45423C10.7527 2.66507 10.8509 2.98223 10.8785 3.56735C10.9086 4.20011 10.9154 4.38983 10.9183 5.99135C10.9212 7.59287 10.9156 7.78307 10.8878 8.41535C10.8623 9.00035 10.7653 9.31811 10.6838 9.53003C10.5758 9.81023 10.4456 10.01 10.2361 10.2208C10.0266 10.4315 9.82705 10.5613 9.54697 10.6708C9.33577 10.7532 9.01813 10.8516 8.43385 10.8794C7.80109 10.9092 7.61149 10.9154 6.00925 10.9189C4.40701 10.9224 4.21801 10.9159 3.58525 10.8886M8.47645 2.79323C8.47669 2.93565 8.51915 3.07479 8.59848 3.19307C8.6778 3.31134 8.79041 3.40344 8.92208 3.45771C9.05375 3.51197 9.19855 3.52598 9.33818 3.49794C9.47781 3.46991 9.60598 3.4011 9.7065 3.30021C9.80701 3.19933 9.87535 3.0709 9.90288 2.93117C9.9304 2.79144 9.91586 2.64669 9.86111 2.51523C9.80636 2.38376 9.71385 2.27148 9.59529 2.19259C9.47672 2.1137 9.33742 2.07175 9.19501 2.07203C9.0041 2.07241 8.82115 2.1486 8.6864 2.28385C8.55165 2.41909 8.47613 2.60232 8.47645 2.79323ZM2.91925 6.00599C2.92261 7.70759 4.30453 9.08387 6.00577 9.08063C7.70701 9.07739 9.08425 7.69559 9.08101 5.99399C9.07777 4.29239 7.69549 2.91575 5.99401 2.91911C4.29253 2.92247 2.91601 4.30463 2.91925 6.00599ZM3.99997 6.00383C3.99919 5.60826 4.11572 5.22135 4.33484 4.89201C4.55395 4.56267 4.86581 4.3057 5.23097 4.1536C5.59613 4.0015 5.99819 3.9611 6.38631 4.0375C6.77443 4.1139 7.13118 4.30368 7.41144 4.58284C7.69171 4.86199 7.8829 5.21799 7.96084 5.6058C8.03878 5.99362 7.99997 6.39584 7.84931 6.7616C7.69866 7.12736 7.44293 7.44023 7.11446 7.66064C6.78599 7.88106 6.39954 7.99913 6.00397 7.99991C5.74131 8.00047 5.48112 7.94927 5.23825 7.84925C4.99538 7.74923 4.77459 7.60235 4.5885 7.41699C4.4024 7.23163 4.25464 7.01142 4.15366 6.76895C4.05268 6.52648 4.00046 6.26649 3.99997 6.00383Z" fill="black"/>
</g>
<defs>
<clipPath id="clip0_211_237">
<rect width="12" height="12" fill="white"/>
</clipPath>
</defs>
</svg>
